<svg width="28" height="28" viewBox="0 0 28 28" fill="none" xmlns="http://www.w3.org/2000/svg">
<path d="M9.8531 1L5.14709 5.719M18.1471 1L22.8531 5.719" stroke="#111111" stroke-miterlimit="10" stroke-linecap="round" stroke-linejoin="round"/>
<path d="M1 8.60513C1 6.20013 2.287 6.00513 3.886 6.00513H24.114C25.713 6.00513 27 6.20013 27 8.60513C27 11.4001 25.713 11.2051 24.114 11.2051H3.886C2.287 11.2051 1 11.4001 1 8.60513Z" stroke="#111111"/>
<path d="M11.0878 16.5997V21.2147M17.0678 16.5997V21.2147M2.94983 11.3997L4.78283 22.6317C5.19883 25.1537 6.19983 26.9997 9.91783 26.9997H17.7568C21.7998 26.9997 22.3978 25.2317 22.8658 22.7877L25.0498 11.3997" stroke="#111111" stroke-linecap="round"/>
</svg>
