<svg width="38" height="38" viewBox="0 0 38 38" fill="none" xmlns="http://www.w3.org/2000/svg">
<path fill-rule="evenodd" clip-rule="evenodd" d="M19 38C29.4934 38 38 29.4937 38 19C38 8.50635 29.4934 0 19 0C8.50659 0 0 8.50635 0 19C0 29.4937 8.50659 38 19 38ZM23.0408 10.8599C21.9867 10.8115 21.67 10.8018 19 10.8018C16.33 10.8018 16.0133 10.8115 14.9592 10.8599C14.3251 10.8677 13.6971 10.9839 13.1025 11.2041C12.6711 11.3706 12.2793 11.6255 11.9524 11.9526C11.6255 12.2793 11.3706 12.6709 11.2042 13.1025C10.9839 13.6973 10.8675 14.3252 10.86 14.959C10.8117 16.0132 10.8017 16.3301 10.8017 19C10.8017 21.6699 10.8117 21.9868 10.86 23.041C10.8675 23.6748 10.9839 24.3027 11.2042 24.8975C11.3706 25.3291 11.6255 25.7207 11.9524 26.0474C12.2793 26.3745 12.6711 26.6294 13.1025 26.7959C13.6971 27.0161 14.3251 27.1323 14.9592 27.1401C16.0133 27.1885 16.33 27.1982 19 27.1982C21.67 27.1982 21.9867 27.1885 23.0408 27.1401C23.6749 27.1323 24.3029 27.0161 24.8975 26.7959C25.3289 26.6294 25.7206 26.3745 26.0476 26.0474C26.3745 25.7207 26.6294 25.3291 26.7958 24.8975C27.0161 24.3027 27.1325 23.6748 27.14 23.041C27.1883 21.9868 27.1983 21.6719 27.1983 19.001C27.1983 16.3301 27.1883 16.0132 27.14 14.959C27.1325 14.3252 27.0161 13.6973 26.7958 13.1025C26.6294 12.6709 26.3745 12.2793 26.0476 11.9526C25.7206 11.6255 25.3289 11.3706 24.8975 11.2041C24.3029 10.9839 23.6749 10.8677 23.0408 10.8599ZM14.8767 9.06006C15.9433 9.01172 16.2842 9 19 9C21.7167 9 22.0558 9.01074 23.1225 9.06104C23.9521 9.07715 24.7729 9.23438 25.55 9.5249C26.2144 9.78174 26.8178 10.1748 27.3215 10.6787C27.8252 11.1821 28.2181 11.7856 28.475 12.4502C28.766 13.2266 28.9232 14.0474 28.94 14.8765C28.9883 15.9434 29 16.2832 29 19C29 21.7168 28.9883 22.0557 28.94 23.1226C28.9236 23.9521 28.7667 24.7729 28.4758 25.5498C28.2189 26.2144 27.826 26.8179 27.3223 27.3213C26.8186 27.8252 26.2152 28.2183 25.5508 28.4751C24.7738 28.7661 23.953 28.9233 23.1233 28.9399C22.0567 28.9883 21.7158 29 19 29C16.2842 29 15.9442 28.9883 14.8775 28.9399C14.0479 28.9233 13.2271 28.7661 12.45 28.4751C11.7856 28.2183 11.1822 27.8252 10.6785 27.3213C10.1748 26.8179 9.78192 26.2144 9.52499 25.5498C9.23398 24.7734 9.07675 23.9526 9.06 23.1235C9.01167 22.0566 9 21.7168 9 19C9 16.2832 9.01167 15.9443 9.06 14.8774C9.07666 14.0479 9.23389 13.2271 9.52499 12.4502C9.78192 11.7856 10.1748 11.1821 10.6785 10.6787C11.1822 10.1748 11.7856 9.78174 12.45 9.5249C13.2268 9.23389 14.0473 9.07666 14.8767 9.06006ZM24.3383 14.8618C25.0011 14.8618 25.5383 14.3242 25.5383 13.6616C25.5383 12.999 25.0011 12.4614 24.3383 12.4614C23.6756 12.4614 23.1383 12.999 23.1383 13.6616C23.1383 14.3242 23.6756 14.8618 24.3383 14.8618ZM19 13.8652C17.9844 13.8652 16.9916 14.166 16.1471 14.7305C15.3027 15.2944 14.6445 16.0967 14.2559 17.0352C13.8672 17.9731 13.7655 19.0059 13.9637 20.002C14.1618 20.998 14.6509 21.9131 15.369 22.6309C16.0871 23.3491 17.0021 23.8384 17.9982 24.0361C18.9943 24.2344 20.0268 24.1328 20.9651 23.7441C21.9034 23.3555 22.7054 22.6973 23.2696 21.853C23.8338 21.0083 24.135 20.0156 24.135 19C24.135 17.6382 23.594 16.332 22.631 15.3691C21.668 14.4062 20.3619 13.8652 19 13.8652ZM19 22.3335C18.3407 22.3335 17.6963 22.1377 17.1481 21.7715C16.5999 21.4053 16.1727 20.8848 15.9204 20.2754C15.6681 19.6665 15.6021 18.9961 15.7307 18.3496C15.8593 17.7031 16.1768 17.1094 16.643 16.6431C17.1091 16.1768 17.7031 15.8594 18.3497 15.731C18.9963 15.6021 19.6665 15.668 20.2756 15.9204C20.8847 16.1729 21.4053 16.6001 21.7716 17.1479C22.1378 17.6963 22.3333 18.3408 22.3333 19C22.3333 19.8843 21.9821 20.7319 21.357 21.3569C20.7319 21.9819 19.884 22.3335 19 22.3335Z" fill="#111111"/>
</svg>
