<svg width="28" height="28" viewBox="0 0 28 28" fill="none" xmlns="http://www.w3.org/2000/svg">
<path d="M14.156 15.014C14.0524 15.001 13.9476 15.001 13.844 15.014C12.7416 14.9769 11.6967 14.5127 10.9301 13.7195C10.1636 12.9263 9.73541 11.8661 9.73604 10.763C9.73604 8.41003 11.634 6.49903 14 6.49903C15.1173 6.49709 16.1906 6.93428 16.9885 7.71635C17.7864 8.49842 18.245 9.56273 18.2655 10.6798C18.286 11.7969 17.8666 12.8773 17.0979 13.6881C16.3292 14.4988 15.2726 14.975 14.156 15.014V15.014ZM22.762 23.594C20.373 25.7898 17.2449 27.0058 14 27C10.62 27 7.55204 25.713 5.23804 23.594C5.36804 22.372 6.14804 21.176 7.53904 20.24C11.101 17.874 16.925 17.874 20.461 20.24C21.852 21.176 22.632 22.372 22.762 23.594V23.594Z" stroke="#111111" stroke-linecap="round" stroke-linejoin="round"/>
<path d="M14 27C21.1799 27 27 21.1799 27 14C27 6.8201 21.1799 1 14 1C6.8201 1 1 6.8201 1 14C1 21.1799 6.8201 27 14 27Z" stroke="#111111" stroke-linecap="round" stroke-linejoin="round"/>
</svg>
