<?xml version="1.0" standalone="no"?>
<!DOCTYPE svg PUBLIC "-//W3C//DTD SVG 20010904//EN"
 "http://www.w3.org/TR/2001/REC-SVG-20010904/DTD/svg10.dtd">
<svg version="1.0" xmlns="http://www.w3.org/2000/svg"
 width="254.000000pt" height="254.000000pt" viewBox="0 0 254.000000 254.000000"
 preserveAspectRatio="xMidYMid meet">
<metadata>
Created by potrace 1.14, written by Peter Selinger 2001-2017
</metadata>
<g transform="translate(0.000000,254.000000) scale(0.100000,-0.100000)"
fill="#000000" stroke="none">
<path d="M2 1272 l3 -1267 1267 -3 1267 -2 -2 1267 -2 1268 -1268 2 -1267 3 2
-1268z m2448 -2 l0 -1180 -1180 0 -1180 0 0 1180 0 1180 1180 0 1180 0 0
-1180z"/>
<path d="M1687 1844 c-1 -2 -15 -5 -30 -8 -127 -23 -224 -99 -257 -201 -22
-66 -16 -165 13 -227 39 -84 96 -137 276 -258 152 -101 202 -151 230 -224 54
-144 -30 -267 -183 -269 -91 -1 -135 16 -195 75 -37 37 -84 135 -95 198 -3 14
-5 25 -6 25 -2 0 -9 37 -13 78 -5 44 -9 49 -29 42 -11 -5 -14 -43 -16 -216 -1
-116 -4 -215 -8 -220 -3 -5 -2 -9 3 -10 4 0 15 -2 25 -4 11 -2 18 6 22 30 4
18 13 35 20 38 7 3 38 -7 68 -22 50 -25 67 -32 133 -48 11 -3 38 -5 60 -6 22
-1 43 -6 47 -12 5 -6 8 -5 8 4 0 11 3 11 15 1 8 -7 15 -9 15 -4 0 5 24 9 53 9
28 -1 58 4 66 10 8 5 17 9 20 8 15 -6 80 19 121 45 59 38 96 74 105 100 3 12
11 22 16 22 6 0 8 4 4 9 -3 5 -1 12 4 16 5 3 8 14 6 25 -2 11 0 20 5 20 12 0
4 158 -9 174 -6 7 -9 15 -6 18 3 3 -1 11 -10 18 -8 7 -15 18 -15 24 0 21 -102
121 -170 166 -36 24 -66 47 -68 52 -2 4 -10 8 -18 8 -8 0 -14 5 -14 10 0 6 -6
10 -14 10 -8 0 -16 3 -18 8 -5 11 -66 52 -78 52 -5 0 -15 9 -22 20 -7 11 -17
20 -22 20 -13 0 -65 59 -83 95 -18 34 -21 126 -5 167 25 62 122 103 206 87 57
-10 92 -29 132 -68 36 -36 91 -134 98 -176 2 -17 5 -30 6 -30 2 0 4 -13 5 -30
2 -16 3 -33 4 -37 2 -15 41 -8 42 7 0 8 1 62 1 120 0 74 4 103 12 98 8 -4 8
-3 0 6 -6 6 -9 40 -7 76 3 58 1 65 -15 65 -13 0 -22 -11 -28 -32 -12 -40 -42
-48 -81 -20 -28 19 -101 50 -138 59 -23 5 -183 11 -188 7z"/>
<path d="M333 1812 c-7 -17 -4 -20 32 -24 68 -9 88 -36 90 -124 1 -27 4 -55 8
-61 4 -5 4 -13 0 -16 -9 -10 -9 -97 0 -97 5 0 5 -5 1 -11 -10 -16 -11 -269 -1
-269 5 0 5 -5 2 -11 -10 -16 -12 -109 -2 -109 4 0 5 -5 2 -11 -10 -16 -12
-109 -2 -109 4 0 5 -5 2 -10 -3 -6 -8 -52 -11 -103 -2 -50 -5 -98 -6 -105 -3
-25 -56 -72 -88 -78 -20 -5 -30 -12 -28 -22 3 -13 28 -15 163 -15 142 -1 160
1 163 16 2 11 -3 17 -15 18 -60 2 -105 27 -124 69 -10 19 -15 38 -13 42 3 4 0
16 -6 27 -7 13 -7 22 0 26 6 4 7 11 4 17 -9 14 -9 686 -1 695 4 3 7 -1 7 -10
0 -10 4 -17 8 -17 5 0 23 -20 41 -45 17 -24 37 -50 44 -57 7 -7 35 -42 62 -78
28 -36 55 -70 60 -76 6 -6 22 -26 37 -45 14 -19 62 -79 104 -134 43 -55 100
-127 126 -160 27 -33 52 -64 56 -70 24 -32 78 -101 82 -105 3 -3 23 -27 45
-55 51 -64 53 -66 99 -63 l39 3 2 515 c1 283 3 515 5 515 1 0 3 11 4 25 2 38
31 76 65 88 17 6 31 8 31 4 0 -4 4 -1 9 7 17 27 1 36 -59 36 -33 0 -60 -2 -60
-5 0 -3 -17 -4 -37 -3 -120 9 -155 8 -160 -5 -3 -7 0 -19 7 -25 10 -9 11 -9 5
3 -8 13 -7 13 8 1 10 -8 20 -11 23 -8 3 3 25 -5 47 -18 64 -35 67 -53 68 -379
1 -155 1 -298 0 -320 l-1 -39 -22 29 c-13 16 -31 38 -41 49 -10 11 -33 39 -50
63 -17 23 -35 42 -40 42 -6 0 -7 3 -4 7 4 3 1 11 -7 17 -10 9 -84 99 -151 184
-5 7 -17 21 -26 30 -8 9 -29 35 -45 56 -16 22 -39 51 -52 65 -12 13 -39 46
-59 73 -21 26 -41 48 -46 48 -4 0 -6 4 -2 9 3 6 0 13 -7 18 -8 4 -32 31 -55
58 -35 43 -46 50 -75 50 -18 -1 -39 -4 -46 -9 -7 -4 -12 -3 -12 2 0 10 -30 9
-47 -1 -6 -4 -14 -3 -18 3 -4 7 -12 7 -26 0 -10 -6 -19 -7 -19 -3 0 14 -82 10
-87 -5z"/>
</g>
</svg>
