<svg width="55" height="55" viewBox="0 0 55 55" fill="none" xmlns="http://www.w3.org/2000/svg">
<path d="M27.5 0C12.3131 0 0 12.3131 0 27.5C0 42.6869 12.3131 55 27.5 55C42.6869 55 55 42.6869 55 27.5C55 12.3131 42.6869 0 27.5 0ZM41.0071 18.8398L36.4925 40.1065C36.1602 41.6144 35.2619 41.981 34.0083 41.2706L27.1333 36.206L23.8196 39.4006C23.6572 39.6108 23.4489 39.781 23.2105 39.8982C22.9722 40.0154 22.7102 40.0764 22.4446 40.0767H22.4331L22.9213 33.0779L35.6629 21.5692C36.2129 21.081 35.5392 20.8038 34.8081 21.2919L19.0667 31.2056L12.2833 29.0881C10.8167 28.6229 10.7754 27.6215 12.5927 26.9019L39.0981 16.6856C40.331 16.2365 41.4035 16.979 41.0048 18.8421L41.0071 18.8398Z" fill="#111111"/>
</svg>
