<svg width="55" height="55" viewBox="0 0 55 55" fill="none" xmlns="http://www.w3.org/2000/svg">
<path d="M55 27.5C55 42.6878 42.6878 55 27.5 55C12.3122 55 0 42.6878 0 27.5C0 12.3122 12.3122 0 27.5 0C42.6878 0 55 12.3122 55 27.5Z" fill="#111111"/>
<path d="M35.016 30.8002C34.6088 30.594 32.6252 29.6261 32.2545 29.488C31.8838 29.356 31.6147 29.2869 31.3445 29.6942C31.0805 30.0913 30.3025 31.0002 30.0649 31.2653C29.8272 31.5304 29.5936 31.5507 29.1924 31.371C28.7852 31.1648 27.4842 30.7413 25.9394 29.356C24.7328 28.2824 23.9295 26.9601 23.6908 26.5528C23.4531 26.1506 23.6644 25.9231 23.8655 25.722C24.0503 25.5372 24.2728 25.2569 24.4789 25.0131C24.6749 24.7694 24.7379 24.6059 24.8811 24.3418C25.0131 24.0564 24.9451 23.834 24.8445 23.6329C24.744 23.4318 23.9345 21.4381 23.5963 20.6439C23.2734 19.8558 22.9352 19.9563 22.6863 19.9563C22.4538 19.935 22.1836 19.935 21.9145 19.935C21.6453 19.935 21.2056 20.0356 20.8349 20.4215C20.4642 20.8288 19.417 21.8017 19.417 23.77C19.417 25.7434 20.8663 27.6528 21.0674 27.9381C21.2736 28.2022 23.9183 32.2647 27.9757 34.0106C28.9436 34.4178 29.6952 34.6616 30.2822 34.8627C31.2501 35.1694 32.1337 35.1267 32.8314 35.0262C33.6033 34.8992 35.2222 34.0471 35.5614 33.0955C35.9057 32.1377 35.9057 31.3445 35.8052 31.1648C35.7046 30.9799 35.4406 30.8794 35.0333 30.6996L35.016 30.8002ZM27.6365 40.7767C25.2345 40.7767 22.86 40.1256 20.7861 38.9089L20.2996 38.6185L15.2215 39.9408L16.5865 34.9998L16.2585 34.492C14.9173 32.3595 14.2058 29.8916 14.2059 27.3724C14.2059 19.999 20.2417 13.9845 27.668 13.9845C31.2653 13.9845 34.6403 15.386 37.1793 17.9251C38.4319 19.1627 39.4254 20.6374 40.102 22.2631C40.7785 23.8888 41.1246 25.6329 41.1199 27.3938C41.1098 34.7621 35.079 40.7767 27.6629 40.7767H27.6365ZM39.11 15.9944C36.0205 13.0105 31.958 11.3235 27.6365 11.3235C18.7234 11.3235 11.4657 18.5497 11.4606 27.4303C11.4606 30.266 12.201 33.0325 13.6188 35.4812L11.3235 43.8235L19.9035 41.5861C22.2804 42.8676 24.9372 43.5416 27.6375 43.5483H27.6426C36.5608 43.5483 43.8185 36.3221 43.8235 27.4354C43.8235 23.1353 42.1467 19.088 39.0897 16.0462L39.11 15.9944Z" fill="white"/>
</svg>
